<svg width="20" height="20" viewBox="0 0 20 20" fill="none" xmlns="http://www.w3.org/2000/svg">
<g clip-path="url(#clip0_244_8147)">
<path d="M18 8.5C18 14.3333 10.5 19.3333 10.5 19.3333C10.5 19.3333 3 14.3333 3 8.5C3 6.51088 3.79018 4.60322 5.1967 3.1967C6.60322 1.79018 8.51088 1 10.5 1C12.4891 1 14.3968 1.79018 15.8033 3.1967C17.2098 4.60322 18 6.51088 18 8.5Z" stroke="#EEF2E6" stroke-width="2" stroke-linecap="round" stroke-linejoin="round"/>
<path d="M10.5 11C11.8807 11 13 9.88071 13 8.5C13 7.11929 11.8807 6 10.5 6C9.11929 6 8 7.11929 8 8.5C8 9.88071 9.11929 11 10.5 11Z" stroke="#EEF2E6" stroke-width="2" stroke-linecap="round" stroke-linejoin="round"/>
</g>
<defs>
<clipPath id="clip0_244_8147">
<rect width="20" height="20" fill="white"/>
</clipPath>
</defs>
</svg>
