<svg width="20" height="20" viewBox="0 0 20 20" fill="none" xmlns="http://www.w3.org/2000/svg">
<g clip-path="url(#clip0_244_8150)">
<path d="M11.7818 4.33333C12.5957 4.49214 13.3438 4.89021 13.9302 5.47661C14.5165 6.06301 14.9146 6.81105 15.0734 7.625M11.7818 1C13.4728 1.18786 15.0498 1.94515 16.2536 3.14751C17.4575 4.34987 18.2168 5.92584 18.4068 7.61667M17.5734 14.2667V16.7667C17.5744 16.9987 17.5268 17.2285 17.4339 17.4411C17.3409 17.6538 17.2045 17.8447 17.0335 18.0016C16.8625 18.1585 16.6606 18.2779 16.4407 18.3523C16.2209 18.4266 15.9879 18.4542 15.7568 18.4333C13.1925 18.1547 10.7293 17.2785 8.5651 15.875C6.55162 14.5956 4.84454 12.8885 3.5651 10.875C2.15675 8.701 1.2803 6.22583 1.00676 3.65C0.985939 3.41956 1.01333 3.1873 1.08718 2.96802C1.16104 2.74874 1.27974 2.54724 1.43574 2.37635C1.59173 2.20546 1.7816 2.06892 1.99326 1.97543C2.20491 1.88195 2.43371 1.83355 2.6651 1.83333H5.1651C5.56952 1.82935 5.96159 1.97257 6.26823 2.23628C6.57487 2.49999 6.77516 2.86621 6.83176 3.26667C6.93728 4.06672 7.13297 4.85227 7.4151 5.60833C7.52722 5.9066 7.55148 6.23076 7.48502 6.5424C7.41856 6.85404 7.26415 7.14009 7.0401 7.36667L5.98176 8.425C7.16806 10.5113 8.89548 12.2387 10.9818 13.425L12.0401 12.3667C12.2667 12.1426 12.5527 11.9882 12.8644 11.9217C13.176 11.8553 13.5002 11.8795 13.7984 11.9917C14.5545 12.2738 15.34 12.4695 16.1401 12.575C16.5449 12.6321 16.9146 12.836 17.1789 13.1479C17.4432 13.4598 17.5836 13.858 17.5734 14.2667Z" stroke="#EEF2E6" stroke-width="2" stroke-linecap="round" stroke-linejoin="round"/>
</g>
<defs>
<clipPath id="clip0_244_8150">
<rect width="20" height="20" fill="white"/>
</clipPath>
</defs>
</svg>
