<svg width="30" height="17" viewBox="0 0 30 17" fill="none" xmlns="http://www.w3.org/2000/svg">
<path d="M25.7567 16.305C25.2484 16.3054 24.7513 16.155 24.3284 15.8728C23.9055 15.5906 23.5758 15.1894 23.381 14.7198C23.1862 14.2502 23.1351 13.7334 23.234 13.2348C23.333 12.7361 23.5776 12.278 23.9369 11.9184C24.2963 11.5588 24.7542 11.3138 25.2528 11.2145C25.7514 11.1152 26.2682 11.166 26.7379 11.3604C27.2076 11.5549 27.6091 11.8843 27.8916 12.307C28.1741 12.7297 28.3249 13.2266 28.3249 13.735C28.3245 14.4162 28.0539 15.0694 27.5724 15.5512C27.0909 16.0331 26.4379 16.3042 25.7567 16.305ZM25.7567 12.1025C25.4338 12.1021 25.118 12.1976 24.8493 12.3767C24.5806 12.5559 24.371 12.8107 24.2472 13.109C24.1233 13.4072 24.0907 13.7355 24.1535 14.0523C24.2163 14.3691 24.3716 14.6602 24.5999 14.8887C24.8281 15.1172 25.119 15.2729 25.4357 15.336C25.7524 15.3991 26.0808 15.3669 26.3792 15.2434C26.6776 15.1199 26.9326 14.9107 27.1121 14.6422C27.2916 14.3737 27.3874 14.058 27.3874 13.735C27.3872 13.3024 27.2154 12.8876 26.9097 12.5815C26.604 12.2754 26.1893 12.1032 25.7567 12.1025ZM12.2136 16.305C11.7052 16.3055 11.2081 16.1552 10.7851 15.8731C10.3622 15.591 10.0324 15.1898 9.83746 14.7202C9.64256 14.2507 9.59131 13.7338 9.69019 13.2352C9.78907 12.7365 10.0336 12.2783 10.393 11.9186C10.7523 11.5589 11.2102 11.3139 11.7088 11.2146C12.2074 11.1152 12.7243 11.1659 13.194 11.3604C13.6638 11.5548 14.0653 11.8842 14.3478 12.3069C14.6303 12.7296 14.7811 13.2266 14.7811 13.735C14.7806 14.416 14.51 15.069 14.0287 15.5508C13.5474 16.0326 12.8946 16.3038 12.2136 16.305ZM12.2136 12.1025C11.8906 12.102 11.5748 12.1973 11.306 12.3764C11.0372 12.5555 10.8275 12.8103 10.7036 13.1085C10.5797 13.4068 10.547 13.7351 10.6097 14.0519C10.6724 14.3688 10.8277 14.6599 11.0559 14.8885C11.2841 15.117 11.575 15.2728 11.8917 15.3359C12.2085 15.3991 12.5368 15.367 12.8353 15.2435C13.1337 15.12 13.3888 14.9107 13.5683 14.6422C13.7478 14.3737 13.8436 14.058 13.8436 13.735C13.8433 13.3026 13.6715 12.8879 13.366 12.5819C13.0604 12.2759 12.646 12.1035 12.2136 12.1025Z" fill="#1C6758"/>
<path d="M29.1382 14.2037H27.8564C27.732 14.2037 27.6128 14.1544 27.5249 14.0665C27.437 13.9785 27.3876 13.8593 27.3876 13.735C27.3876 13.6107 27.437 13.4915 27.5249 13.4035C27.6128 13.3156 27.732 13.2662 27.8564 13.2662H29.0057V10.7806C29.0054 10.4446 28.9194 10.1141 28.7557 9.82063L26.2182 5.27125C26.1966 5.23243 26.1649 5.20008 26.1266 5.17756C26.0882 5.15504 26.0446 5.14315 26.0001 5.14313H22.542V13.2681H23.6582C23.7826 13.2681 23.9018 13.3175 23.9897 13.4054C24.0776 13.4933 24.127 13.6126 24.127 13.7369C24.127 13.8612 24.0776 13.9804 23.9897 14.0683C23.9018 14.1562 23.7826 14.2056 23.6582 14.2056H22.0732C21.9489 14.2056 21.8297 14.1562 21.7418 14.0683C21.6539 13.9804 21.6045 13.8612 21.6045 13.7369V4.67438C21.6045 4.55006 21.6539 4.43083 21.7418 4.34292C21.8297 4.25501 21.9489 4.20563 22.0732 4.20563H26.0001C26.2116 4.20552 26.4193 4.26189 26.6016 4.36891C26.784 4.47593 26.9345 4.62972 27.0376 4.81438L29.5745 9.36438C29.8157 9.79746 29.9424 10.2849 29.9426 10.7806V13.3994C29.9423 13.6126 29.8574 13.817 29.7067 13.9678C29.5559 14.1186 29.3515 14.2034 29.1382 14.2037ZM10.1145 14.2037H5.62012C5.4958 14.2037 5.37657 14.1544 5.28866 14.0665C5.20075 13.9785 5.15137 13.8593 5.15137 13.735V10.13C5.15137 10.0057 5.20075 9.88645 5.28866 9.79854C5.37657 9.71064 5.4958 9.66125 5.62012 9.66125C5.74444 9.66125 5.86367 9.71064 5.95157 9.79854C6.03948 9.88645 6.08887 10.0057 6.08887 10.13V13.2662H10.1145C10.2388 13.2662 10.358 13.3156 10.4459 13.4035C10.5339 13.4915 10.5832 13.6107 10.5832 13.735C10.5832 13.8593 10.5339 13.9785 10.4459 14.0665C10.358 14.1544 10.2388 14.2037 10.1145 14.2037ZM5.62012 8.46688C5.4958 8.46688 5.37657 8.41749 5.28866 8.32958C5.20075 8.24167 5.15137 8.12245 5.15137 7.99813V4.85063C5.15137 4.72631 5.20075 4.60708 5.28866 4.51917C5.37657 4.43126 5.4958 4.38188 5.62012 4.38188C5.74444 4.38188 5.86367 4.43126 5.95157 4.51917C6.03948 4.60708 6.08887 4.72631 6.08887 4.85063V8C6.08837 8.124 6.03877 8.24274 5.95091 8.33024C5.86306 8.41775 5.74411 8.46688 5.62012 8.46688Z" fill="#1C6758"/>
<path d="M22.0733 14.2037H14.3127C14.1884 14.2037 14.0691 14.1544 13.9812 14.0665C13.8933 13.9785 13.8439 13.8593 13.8439 13.735C13.8439 13.6107 13.8933 13.4914 13.9812 13.4035C14.0691 13.3156 14.1884 13.2662 14.3127 13.2662H21.6046V1.00312H6.08893V2.93375C6.08893 3.05807 6.03954 3.1773 5.95163 3.26521C5.86372 3.35311 5.7445 3.4025 5.62018 3.4025C5.49586 3.4025 5.37663 3.35311 5.28872 3.26521C5.20081 3.1773 5.15143 3.05807 5.15143 2.93375V0.916874C5.15176 0.691102 5.24163 0.474681 5.40134 0.315095C5.56104 0.155508 5.77753 0.06579 6.0033 0.0656247H21.6908C21.9165 0.0659554 22.1328 0.155746 22.2924 0.315315C22.4519 0.474884 22.5417 0.69121 22.5421 0.916874V13.735C22.5421 13.8593 22.4927 13.9785 22.4048 14.0665C22.3168 14.1544 22.1976 14.2037 22.0733 14.2037ZM7.4733 10.5987H1.52393C1.39961 10.5987 1.28038 10.5494 1.19247 10.4615C1.10456 10.3735 1.05518 10.2543 1.05518 10.13C1.05518 10.0057 1.10456 9.88645 1.19247 9.79854C1.28038 9.71064 1.39961 9.66125 1.52393 9.66125H7.4733C7.59762 9.66125 7.71685 9.71064 7.80476 9.79854C7.89267 9.88645 7.94205 10.0057 7.94205 10.13C7.94205 10.2543 7.89267 10.3735 7.80476 10.4615C7.71685 10.5494 7.59762 10.5987 7.4733 10.5987Z" fill="#1C6758"/>
<path d="M12.2137 8.46688H3.91187C3.78754 8.46688 3.66832 8.41749 3.58041 8.32958C3.4925 8.24167 3.44312 8.12245 3.44312 7.99813C3.44312 7.8738 3.4925 7.75458 3.58041 7.66667C3.66832 7.57876 3.78754 7.52938 3.91187 7.52938H12.2137C12.3381 7.52938 12.4573 7.57876 12.5452 7.66667C12.6331 7.75458 12.6825 7.8738 12.6825 7.99813C12.6825 8.12245 12.6331 8.24167 12.5452 8.32958C12.4573 8.41749 12.3381 8.46688 12.2137 8.46688ZM3.65374 5.99188H0.411865C0.287545 5.99188 0.168317 5.94249 0.0804089 5.85458C-0.00749875 5.76667 -0.0568848 5.64745 -0.0568848 5.52313C-0.0568848 5.39881 -0.00749875 5.27958 0.0804089 5.19167C0.168317 5.10376 0.287545 5.05438 0.411865 5.05438H3.65374C3.77806 5.05438 3.89729 5.10376 3.9852 5.19167C4.0731 5.27958 4.12249 5.39881 4.12249 5.52313C4.12249 5.64745 4.0731 5.76667 3.9852 5.85458C3.89729 5.94249 3.77806 5.99188 3.65374 5.99188ZM8.85186 3.4025H3.12937C3.00504 3.4025 2.88582 3.35311 2.79791 3.26521C2.71 3.1773 2.66062 3.05807 2.66062 2.93375C2.66062 2.80943 2.71 2.6902 2.79791 2.60229C2.88582 2.51439 3.00504 2.465 3.12937 2.465H8.85186C8.97618 2.465 9.09541 2.51439 9.18332 2.60229C9.27123 2.6902 9.32061 2.80943 9.32061 2.93375C9.32061 3.05807 9.27123 3.1773 9.18332 3.26521C9.09541 3.35311 8.97618 3.4025 8.85186 3.4025Z" fill="#1C6758"/>
</svg>
